# xmcd
#
# Track frame offsets:
#	150
#	15816
#	35922
#	54130
#	68165
#	85829
#	104682
#	118188
#	132473
#	148533
#	174851
#	196349
#
# Disc length: 2834 seconds
#
# Revision: 0
# Processed by: cddbd v1.5.1PL0 Copyright (c) Steve Scherf et al.
# Submitted via: dBpowerAMP V4.0
#
DISCID=a00b100c
DTITLE=Shooter Jennings - Put the O Back In Country
DYEAR=2005
DGENRE=Country
TTITLE0=Put the O Back In Country
TTITLE1=4th of July
TTITLE2=Lonesome Blues
TTITLE3=Solid Country Gold
TTITLE4=Busted in Baylor County
TTITLE5=Sweet Savannah
TTITLE6=Steady At the Wheel
TTITLE7=Manifesto No. 1
TTITLE8=The Letter
TTITLE9=Southern Comfort
TTITLE10=Daddy's Farm
TTITLE11=My Song For You
EXTD=Shooter Jennings' debut.  5 stars!  Chris Patrick
EXTT0=
EXTT1=
EXTT2=
EXTT3=
EXTT4=
EXTT5=
EXTT6=
EXTT7=
EXTT8=
EXTT9=
EXTT10=
EXTT11=
PLAYORDER=
